<?xml version="1.0" encoding="UTF-8"?>
<svg version="1.1" xmlns="http://www.w3.org/2000/svg" width="2000" height="297">
<path d="M0 0 C9.57299652 9.2659908 18.28123096 20.94721552 23.04980469 33.49609375 C23.04980469 34.48609375 23.04980469 35.47609375 23.04980469 36.49609375 C18.28472258 37.95141466 13.515909 39.39349555 8.74316406 40.82348633 C7.12032688 41.31173201 5.49856574 41.80356933 3.87792969 42.29907227 C1.54733933 43.01095909 -0.78682399 43.70981131 -3.12207031 44.40625 C-3.84513367 44.63014908 -4.56819702 44.85404816 -5.31317139 45.08473206 C-11.82611917 47.00187851 -11.82611917 47.00187851 -14.95019531 45.49609375 C-16.48535156 43.1953125 -16.48535156 43.1953125 -18.01269531 40.18359375 C-28.34208406 21.66117171 -44.98946877 11.17160093 -65.07519531 5.24609375 C-93.06029633 -1.76478751 -125.17458593 -0.02601005 -150.95019531 13.49609375 C-173.88731238 27.5078639 -186.64335656 48.85405196 -192.94238281 74.5703125 C-195.44855168 86.17514869 -196.29875344 97.54054343 -196.26586914 109.37158203 C-196.26271687 111.72996691 -196.28624792 114.08708196 -196.31152344 116.4453125 C-196.42583014 143.88427102 -189.48548253 170.93741367 -171.95019531 192.49609375 C-170.95439453 193.75486328 -170.95439453 193.75486328 -169.93847656 195.0390625 C-155.56743805 212.17274058 -133.88384629 221.76343049 -111.95019531 224.49609375 C-106.4265518 224.79788931 -100.91837333 224.83689102 -95.38769531 224.80859375 C-94.63252625 224.8064386 -93.87735718 224.80428345 -93.0993042 224.80206299 C-81.81094996 224.75032682 -70.92008444 224.34080172 -59.95019531 221.49609375 C-59.15548828 221.29741699 -58.36078125 221.09874023 -57.54199219 220.89404297 C-41.3838868 216.75531106 -26.56083323 210.23360801 -12.95019531 200.49609375 C-11.92667969 199.87089844 -10.90316406 199.24570313 -9.84863281 198.6015625 C-7.74134672 196.81927922 -7.02880989 195.82701933 -6.384552 193.11503601 C-6.15848326 190.0873356 -6.11928468 187.10627857 -6.14550781 184.0703125 C-6.12508423 182.60350037 -6.12508423 182.60350037 -6.10424805 181.10705566 C-6.0622184 177.46613139 -6.07176403 173.82475898 -6.07519531 170.18359375 C-6.03394531 162.03671875 -5.99269531 153.88984375 -5.95019531 145.49609375 C-33.67019531 145.49609375 -61.39019531 145.49609375 -89.95019531 145.49609375 C-89.95019531 134.60609375 -89.95019531 123.71609375 -89.95019531 112.49609375 C-50.35019531 112.49609375 -10.75019531 112.49609375 30.04980469 112.49609375 C30.29730469 128.43921875 30.54480469 144.38234375 30.79980469 160.80859375 C30.96367676 168.33281128 30.96367676 168.33281128 31.13085938 176.0090332 C31.18505859 182.18005371 31.18505859 182.18005371 31.19512939 185.07780457 C31.21344278 187.08264718 31.25541634 189.0873653 31.31671143 191.09135437 C31.83313019 208.87931383 31.83313019 208.87931383 27.43675232 214.22531128 C24.59495245 217.07977134 21.43235555 219.31135756 18.04980469 221.49609375 C16.73105058 222.5176632 15.41740074 223.54599432 14.11621094 224.58984375 C12.95780943 225.40568358 11.78969642 226.20790761 10.61230469 226.99609375 C9.94948486 227.44130371 9.28666504 227.88651367 8.60375977 228.34521484 C-4.34498159 236.83682709 -17.78359783 243.44964633 -32.45019531 248.43359375 C-33.47991455 248.78695801 -34.50963379 249.14032227 -35.57055664 249.50439453 C-53.90661603 255.41578033 -71.73789864 257.15432917 -90.93432617 257.01757812 C-94.51256882 256.99609451 -98.08880907 257.01752389 -101.66699219 257.04296875 C-138.52966653 257.08809491 -172.13701495 245.60939568 -198.85253906 219.68359375 C-228.2332099 190.07388744 -237.36236942 148.69320243 -237.25292969 108.26342773 C-236.66550263 67.99475898 -225.60307917 31.23947976 -196.64941406 2.1875 C-148.41788326 -43.36011583 -48.66117575 -45.57202715 0 0 Z " fill="#FFFFFF" transform="translate(240.9501953125,40.50390625)"/>
<path d="M0 0 C9.73272426 9.46971923 18.11456248 21.17764394 23.35742188 33.75317383 C23.02742188 34.74317383 22.69742187 35.73317383 22.35742188 36.75317383 C19.95080329 37.74917391 17.67009438 38.53939101 15.18164062 39.26879883 C14.46007278 39.48888611 13.73850494 39.70897339 12.99507141 39.93572998 C11.46604759 40.39878094 9.93514624 40.85566981 8.40258789 41.30688477 C6.05984373 41.99876696 3.72527594 42.71420387 1.390625 43.43286133 C-0.09527291 43.87960724 -1.58158881 44.32496574 -3.06835938 44.76879883 C-3.7664119 44.98328674 -4.46446442 45.19777466 -5.18367004 45.41876221 C-11.50441503 47.25201896 -11.50441503 47.25201896 -14.64257812 45.75317383 C-16.39648438 43.23364258 -16.39648438 43.23364258 -18.20507812 39.94067383 C-28.56574582 22.18936372 -43.97354181 11.35743753 -63.64257812 5.75317383 C-73.49070297 3.22988634 -83.4943399 2.15608155 -93.64257812 1.75317383 C-94.4546875 1.71192383 -95.26679687 1.67067383 -96.10351562 1.62817383 C-122.01494998 0.92069439 -148.18380507 8.47296236 -167.29882812 26.37817383 C-190.32625582 49.71263389 -196.6022374 81.93920703 -196.68603516 113.6394043 C-196.23469027 145.97902617 -187.97688943 176.63193097 -165.11914062 200.37426758 C-154.98747161 210.1345411 -143.02920064 216.51231596 -129.64257812 220.75317383 C-127.85013672 221.34291992 -127.85013672 221.34291992 -126.02148438 221.94458008 C-105.95505823 227.79025469 -79.7803202 226.97528635 -59.64257812 221.75317383 C-58.84787109 221.55449707 -58.05316406 221.35582031 -57.234375 221.15112305 C-40.30615687 216.81513471 -19.37777344 209.47400303 -7.64257812 195.75317383 C-7.03303916 193.34586004 -7.03303916 193.34586004 -7.09667969 190.70922852 C-7.07686035 189.6945752 -7.05704102 188.67992187 -7.03662109 187.63452148 C-7.03549316 186.57539551 -7.03436523 185.51626953 -7.03320312 184.42504883 C-7.0097583 182.95672607 -7.0097583 182.95672607 -6.98583984 181.45874023 C-6.93329463 177.80713048 -6.91498254 174.15509289 -6.89257812 170.50317383 C-6.81007813 162.33567383 -6.72757813 154.16817383 -6.64257812 145.75317383 C-34.03257812 145.75317383 -61.42257812 145.75317383 -89.64257812 145.75317383 C-89.64257812 134.86317383 -89.64257812 123.97317383 -89.64257812 112.75317383 C-50.37257813 112.75317383 -11.10257813 112.75317383 29.35742188 112.75317383 C29.52242187 128.94379883 29.68742187 145.13442383 29.85742188 161.81567383 C29.93025391 166.92044189 30.00308594 172.02520996 30.078125 177.28466797 C30.11425781 183.53723145 30.11425781 183.53723145 30.12097168 186.46800232 C30.13322523 188.50700356 30.16129906 190.54594819 30.20202637 192.58457947 C30.26077134 195.6809389 30.26866549 198.77377062 30.265625 201.87060547 C30.3088023 203.22402715 30.3088023 203.22402715 30.35285187 204.60479069 C30.30219991 208.46987933 30.14013531 210.82026111 27.60243225 213.84493828 C25.59183743 215.61821596 23.54246665 217.20287639 21.35742188 218.75317383 C20.13152344 219.80118164 20.13152344 219.80118164 18.88085938 220.87036133 C-12.3666837 246.43653293 -51.52117715 257.78956342 -91.5012207 257.35009766 C-94.97168245 257.31550834 -98.4396178 257.32961109 -101.91015625 257.34887695 C-139.02188918 257.32421756 -171.98225112 245.33866132 -199.14257812 219.62817383 C-230.30488125 187.41046293 -237.47765894 144.04620652 -236.81997681 100.96234131 C-236.05602859 64.90378077 -224.12688222 30.52956164 -198.64257812 4.75317383 C-198.0521875 4.0905957 -197.46179688 3.42801758 -196.85351562 2.74536133 C-175.36532284 -20.94674866 -138.3819626 -29.40335288 -107.82299805 -30.99951172 C-69.50474331 -32.63045876 -28.92875922 -27.23640866 0 0 Z " fill="#FFFFFF" transform="translate(1144.642578125,40.246826171875)"/>
<path d="M0 0 C12.21 0 24.42 0 37 0 C37.33 97.02 37.66 194.04 38 294 C26.45 294 14.9 294 3 294 C2.0625 284.125 2.0625 284.125 1.77368164 281.07861328 C1.2004471 275.05055635 0.60835652 269.02461275 0 263 C-0.4125 263.68964844 -0.825 264.37929688 -1.25 265.08984375 C-11.76628381 282.20227878 -24.09978768 291.72870452 -43.77938843 296.56697083 C-47.50200624 297.29289793 -51.18528679 297.34519661 -54.96875 297.37109375 C-55.80732544 297.38012222 -56.64590088 297.3891507 -57.5098877 297.39845276 C-59.27804034 297.41288243 -61.0462455 297.42182374 -62.81445312 297.42553711 C-65.46580825 297.43734769 -68.11476539 297.48652987 -70.765625 297.53710938 C-89.81649878 297.71767688 -105.50624645 292.74031046 -119.62109375 279.46484375 C-143.26522525 254.96657286 -146.17653246 217.28995215 -146.0559082 184.96826172 C-145.42298387 151.36523103 -141.30410273 115.58752637 -116 91 C-101.61984651 78.01994259 -84.07700841 74.67433846 -65.375 74.5625 C-64.17238525 74.55234863 -62.96977051 74.54219727 -61.73071289 74.53173828 C-42.32173157 74.7195714 -25.06721728 80.37081238 -10.8125 93.75 C-7 98 -7 98 0 109 C0 73.03 0 37.06 0 0 Z M-91.9296875 116.4296875 C-111.44060922 140.65268088 -108.99217267 182.66596682 -106.48193359 212.03515625 C-104.74280951 228.17422774 -100.97298191 247.27457975 -89 259 C-80.54510318 265.57176071 -71.66674924 269.31249468 -61 270 C-60.360625 270.05285156 -59.72125 270.10570312 -59.0625 270.16015625 C-45.04730022 270.77066685 -31.54368654 266.88469185 -20.8125 257.875 C-4.55973537 242.33440659 -0.35688354 218.84433085 0.22897339 197.21376038 C0.31848198 192.95515287 0.35167624 188.69691264 0.375 184.4375 C0.3830365 183.6196402 0.391073 182.8017804 0.39935303 181.95913696 C0.57077468 158.91908534 -1.88860191 133.09470974 -18 115.3125 C-30.01192401 103.88800566 -44.69638482 101.38612562 -60.6484375 101.75 C-73.14940155 102.28906701 -83.37693852 107.40013022 -91.9296875 116.4296875 Z " fill="#FFFFFF" transform="translate(1592,0)"/>
<path d="M0 0 C0.74979126 -0.00570007 1.49958252 -0.01140015 2.27209473 -0.01727295 C3.85195536 -0.02665785 5.431835 -0.03323077 7.01171875 -0.03710938 C9.372765 -0.04673844 11.73290999 -0.07779186 14.09375 -0.109375 C35.83212889 -0.26124844 57.76861086 4.5038542 74.15625 19.765625 C86.96355601 33.35537093 92.03106829 50.39277474 92.07983398 68.74389648 C92.086521 69.79357101 92.09320801 70.84324554 92.10009766 71.92472839 C92.11412114 74.19999991 92.12602373 76.47528527 92.13604546 78.75057793 C92.15252317 82.36355951 92.17576743 85.9764399 92.20094299 89.58937073 C92.27150598 99.86087952 92.33158117 110.13243091 92.38305664 120.40405273 C92.4150529 126.6939638 92.45638464 132.98375978 92.50325203 139.27357674 C92.51915557 141.65870127 92.53153008 144.04385226 92.54015923 146.42901421 C91.64277429 169.72512436 91.64277429 169.72512436 98.90625 191.203125 C102.33598 194.42499258 105.49519898 195.33369983 110.13671875 195.30078125 C110.86012451 195.29828369 111.58353027 195.29578613 112.32885742 195.29321289 C113.24127197 195.28410889 114.15368652 195.27500488 115.09375 195.265625 C118.001875 195.245 120.91 195.224375 123.90625 195.203125 C123.90625 202.793125 123.90625 210.383125 123.90625 218.203125 C115.06525857 220.72912255 107.21039466 221.40796515 98.09375 221.453125 C96.54977539 221.4840625 96.54977539 221.4840625 94.97460938 221.515625 C84.18152072 221.57023898 75.27449024 219.20986584 66.90625 212.203125 C60.4094759 205.73949771 57.16640477 194.74861904 56.80859375 185.74609375 C56.82599609 184.58013672 56.82599609 184.58013672 56.84375 183.390625 C56.85277344 182.60042969 56.86179687 181.81023437 56.87109375 180.99609375 C56.88849609 180.10857422 56.88849609 180.10857422 56.90625 179.203125 C56.24625 179.203125 55.58625 179.203125 54.90625 179.203125 C54.535 180.24919922 54.535 180.24919922 54.15625 181.31640625 C46.78374304 198.34228952 31.63569577 210.99833014 14.83642578 218.05957031 C4.1646153 222.22443952 -6.0656189 222.70455052 -17.37475586 222.64916992 C-20.02341305 222.64065021 -22.66991325 222.66952887 -25.31835938 222.70117188 C-42.8459353 222.77306883 -56.77028605 218.82952611 -69.8046875 206.58203125 C-81.99957895 193.90850072 -86.01612758 176.32405986 -86.46875 159.203125 C-86.02985529 142.60145554 -82.44043179 126.8054758 -71.09375 114.203125 C-70.05541016 113.04296875 -70.05541016 113.04296875 -68.99609375 111.859375 C-50.46297171 92.24760565 -20.92240444 88.74696104 4.78125 87.95141602 C12.38462017 87.7662641 19.98877878 87.66950459 27.59375 87.578125 C30.25328358 87.54081447 32.91276792 87.50078995 35.57226562 87.4609375 C42.01682698 87.36603372 48.46145786 87.28069221 54.90625 87.203125 C54.77346339 83.52311136 54.62985071 79.84359465 54.484375 76.1640625 C54.44715332 75.12886475 54.40993164 74.09366699 54.37158203 73.02709961 C53.86075772 60.42175854 51.97441417 49.20485289 43.46875 39.390625 C30.0562945 27.94096787 13.72547865 28.19616629 -3.09375 29.203125 C-14.05766498 30.49932025 -23.15498102 34.03986652 -30.84375 42.078125 C-34.69781125 47.97336155 -36.20069455 55.49284758 -38.09375 62.203125 C-42.38557853 61.89282336 -46.67717994 61.57947945 -50.96875 61.265625 C-52.17273438 61.17861328 -53.37671875 61.09160156 -54.6171875 61.00195312 C-61.45460057 60.5002951 -68.27687934 59.93441794 -75.09375 59.203125 C-77.42973333 51.05008514 -73.17507116 41.86576733 -69.53125 34.578125 C-59.75816672 17.92950575 -44.34074097 8.33466403 -25.94213867 3.48510742 C-17.29964368 1.29406652 -8.92262901 0.054485 0 0 Z M27.29272461 113.52050781 C25.58576565 113.55871727 23.87872837 113.59358404 22.17163086 113.625 C1.11799715 114.01461905 -21.47919244 114.43914766 -37.90625 129.453125 C-46.78017015 138.9339878 -48.66450713 150.73985893 -48.33984375 163.22265625 C-47.70831635 173.43736138 -44.77660716 180.92789895 -37.2421875 187.921875 C-29.38759303 194.30568883 -21.21321436 195.72921104 -11.28125 195.578125 C-10.30929687 195.56724854 -9.33734375 195.55637207 -8.3359375 195.54516602 C10.60982632 195.12510013 24.91073543 187.49761613 37.90625 174.203125 C38.49921875 173.64238281 39.0921875 173.08164063 39.703125 172.50390625 C43.38500214 168.73295144 45.69269763 164.15827635 48.09375 159.515625 C48.59406738 158.56296753 48.59406738 158.56296753 49.10449219 157.59106445 C54.24608532 147.18749345 55.34697841 136.93281283 55.09375 125.453125 C55.08021484 124.2671875 55.06667969 123.08125 55.05273438 121.859375 C55.01782409 118.97345807 54.96879539 116.08855236 54.90625 113.203125 C45.69853545 113.13302538 36.49740617 113.30671035 27.29272461 113.52050781 Z " fill="#FFFFFF" transform="translate(629.09375,74.796875)"/>
<path d="M0 0 C0.70721191 0.00215515 1.41442383 0.0043103 2.14306641 0.00653076 C28.09188057 0.13351495 50.58561383 6.49231762 69.25 25.3125 C92.69751765 50.01227918 95.25 87.29064371 95.25 119.3125 C44.76 119.3125 -5.73 119.3125 -57.75 119.3125 C-54.91596743 153.84768926 -54.91596743 153.84768926 -36.75 182.3125 C-20.59916515 194.89851094 -2.09078711 196.29294311 17.73828125 194.02832031 C29.65875851 191.99617314 41.72607687 185.96692178 49.25 176.3125 C52.04359687 172.15385011 54.6609848 168.07954559 56.25 163.3125 C63.79008244 163.87542939 70.59365986 165.67758332 77.8125 167.875 C78.91658203 168.20435547 80.02066406 168.53371094 81.15820312 168.87304688 C83.85760352 169.67936128 86.55469119 170.49263299 89.25 171.3125 C86.52735332 186.06803769 75.86216887 198.38997357 64.25 207.3125 C49.32351701 217.33585949 32.56735913 222.60515617 14.5546875 222.6484375 C13.56356964 222.6550943 12.57245178 222.6617511 11.55130005 222.66860962 C9.46553381 222.67867192 7.3797358 222.68342865 5.29394531 222.68310547 C2.15373732 222.68746015 -0.98504142 222.72379892 -4.125 222.76171875 C-19.24217064 222.84787096 -32.88034176 221.40269514 -46.625 214.5625 C-47.33277588 214.21815918 -48.04055176 213.87381836 -48.76977539 213.51904297 C-54.76007941 210.50297462 -59.84245855 206.89740031 -64.75 202.3125 C-65.57757813 201.57515625 -66.40515625 200.8378125 -67.2578125 200.078125 C-88.60104677 180.10555715 -95.90135719 149.53495384 -96.85498047 121.19238281 C-97.67677784 85.94186933 -93.46972708 50.64711296 -68.359375 23.76171875 C-49.39695872 5.96316335 -25.50910518 -0.13980664 0 0 Z M-42.75 45.3125 C-52.78921206 58.57482751 -57.75 74.71356679 -57.75 91.3125 C-19.8 91.3125 18.15 91.3125 57.25 91.3125 C55.86734374 78.65780308 55.86734374 78.65780308 53 66.5 C52.78384033 65.79552734 52.56768066 65.09105469 52.3449707 64.36523438 C48.18611268 51.40086555 41.07567902 40.31982168 28.96875 33.59375 C4.79211048 22.20016126 -24.31984121 24.95360366 -42.75 45.3125 Z " fill="#FFFFFF" transform="translate(413.75,74.6875)"/>
<path d="M0 0 C0.93776779 -0.00571014 1.87553558 -0.01142029 2.84172058 -0.01730347 C3.86362488 -0.01842133 4.88552917 -0.01953918 5.93840027 -0.02069092 C7.56101021 -0.02813828 7.56101021 -0.02813828 9.21640015 -0.03573608 C12.7971612 -0.05034833 16.37787796 -0.05715805 19.95866394 -0.06268311 C22.44724529 -0.06843516 24.93582663 -0.07419289 27.42440796 -0.07995605 C32.64391791 -0.09046326 37.86341248 -0.09630783 43.08293152 -0.09979248 C48.44009018 -0.10355801 53.79711134 -0.11764635 59.15422058 -0.14080811 C65.62329309 -0.16834614 72.09223181 -0.18120114 78.56136131 -0.18312836 C81.02569886 -0.18615397 83.49003557 -0.19417939 85.95433998 -0.20731354 C89.40361109 -0.22438556 92.85238519 -0.22249069 96.30168152 -0.21600342 C97.82542892 -0.22982559 97.82542892 -0.22982559 99.37995911 -0.243927 C106.61173618 -0.20136337 111.50718004 0.7077496 117.12663269 5.57794189 C120.37932485 9.38823842 121.56181106 12.00714021 121.58155823 17.02285767 C121.59435318 18.49478325 121.59435318 18.49478325 121.60740662 19.9964447 C121.60604706 21.60178825 121.60604706 21.60178825 121.60466003 23.23956299 C121.61137726 24.37167709 121.61809448 25.5037912 121.62501526 26.67021179 C121.64403588 30.41814546 121.6479215 34.16590045 121.65007019 37.91387939 C121.65649514 40.51695836 121.66322327 43.12003659 121.67024231 45.72311401 C121.68302857 51.18222214 121.68600767 56.64128176 121.68473816 62.10040283 C121.68353695 68.4034511 121.70463585 74.70615683 121.73622549 81.00911844 C121.76556396 87.07999045 121.77271334 93.15069851 121.77151871 99.22163773 C121.77388005 101.80123926 121.78273342 104.38084328 121.79818344 106.96039963 C121.81776813 110.56806652 121.81203402 114.17485078 121.79997253 117.78253174 C121.81121155 118.84871231 121.82245056 119.91489288 121.83403015 121.01338196 C121.78267781 127.05474194 121.34389028 130.54227506 117.31413269 135.14044189 C113.27710003 138.69687543 110.97693925 140.26108081 105.63426208 140.28761292 C104.15383926 140.29834587 104.15383926 140.29834587 102.64350891 140.30929565 C101.55673859 140.31198456 100.46996826 140.31467346 99.3502655 140.31744385 C98.20868988 140.32401505 97.06711426 140.33058624 95.89094543 140.33735657 C92.09971558 140.35712457 88.3085254 140.36875997 84.51725769 140.37872314 C83.22473839 140.38279867 81.93221909 140.3868742 80.60053253 140.39107323 C74.46560355 140.4097945 68.33069453 140.42435676 62.19574285 140.4326852 C55.11745827 140.44245309 48.0394868 140.46875956 40.96131253 140.50918609 C34.82852589 140.54300893 28.69587065 140.55483225 22.56299591 140.55888939 C19.95547615 140.56376676 17.34796 140.57541325 14.7405014 140.59392738 C11.09193899 140.61822342 7.44419621 140.61737066 3.795578 140.6104126 C2.7169046 140.62322266 1.6382312 140.63603271 0.52687073 140.64923096 C-5.54614239 140.6069862 -9.06576968 140.19675236 -13.68586731 136.14044189 C-17.43977988 131.98070094 -18.80654054 129.01991045 -18.8263092 123.45420837 C-18.83201935 122.49112762 -18.83772949 121.52804687 -18.84361267 120.53578186 C-18.84473053 119.48065903 -18.84584839 118.42553619 -18.84700012 117.33843994 C-18.85196503 116.225979 -18.85692993 115.11351807 -18.86204529 113.96734619 C-18.87667695 110.27894477 -18.88347059 106.59058635 -18.88899231 102.90216064 C-18.8947429 100.34249368 -18.90050064 97.78282673 -18.90626526 95.22315979 C-18.91543386 90.53899802 -18.92173302 85.85484918 -18.92476201 81.1706807 C-18.92924091 74.28263266 -18.94678216 67.39478324 -18.97576261 60.50679559 C-19.00001034 54.53580459 -19.00770762 48.5648629 -19.00943756 42.59382057 C-19.01246605 40.05608858 -19.02050115 37.51835746 -19.03362274 34.98065758 C-19.05066908 31.43049432 -19.04880613 27.88081497 -19.04231262 24.33062744 C-19.0515274 23.2815773 -19.06074219 22.23252716 -19.07023621 21.15168762 C-19.03377165 14.79043529 -18.43672973 10.18489984 -14.00227356 5.27716064 C-13.4234845 4.79891846 -12.84469543 4.32067627 -12.24836731 3.82794189 C-11.67215637 3.33680908 -11.09594543 2.84567627 -10.50227356 2.33966064 C-7.19813866 0.15822105 -3.88305055 0.01420501 0 0 Z " fill="#60767E" transform="translate(1718.6858673095703,154.85955810546875)"/>
<path d="M0 0 C0.98694855 -0.0071553 1.97389709 -0.01431061 2.99075317 -0.02168274 C4.0775235 -0.02437164 5.16429382 -0.02706055 6.28399658 -0.02983093 C7.4255722 -0.03640213 8.56714783 -0.04297333 9.74331665 -0.04974365 C13.5345465 -0.06951166 17.32573669 -0.08114705 21.11700439 -0.09111023 C22.4095237 -0.09518576 23.702043 -0.09926128 25.03372955 -0.10346031 C31.16865853 -0.12218159 37.30356755 -0.13674385 43.43851924 -0.14507228 C50.51680381 -0.15484018 57.59477528 -0.18114664 64.67294955 -0.22157317 C70.8057362 -0.25539601 76.93839143 -0.26721934 83.07126617 -0.27127647 C85.67878594 -0.27615385 88.28630208 -0.28780033 90.89376068 -0.30631447 C94.54232309 -0.33061051 98.19006587 -0.32975775 101.83868408 -0.32279968 C102.91735748 -0.33560974 103.99603088 -0.3484198 105.10739136 -0.36161804 C111.18040447 -0.31937329 114.70003177 0.09086055 119.32012939 4.14717102 C123.07404196 8.30691197 124.44080262 11.26770247 124.46057129 16.83340454 C124.46628143 17.79648529 124.47199158 18.75956604 124.47787476 19.75183105 C124.47955154 21.3345153 124.47955154 21.3345153 124.48126221 22.94917297 C124.48622711 24.06163391 124.49119202 25.17409485 124.49630737 26.32026672 C124.51093904 30.00866815 124.51773267 33.69702656 124.52325439 37.38545227 C124.52900499 39.94511924 124.53476273 42.50478619 124.54052734 45.06445312 C124.54969594 49.7486149 124.55599511 54.43276373 124.5590241 59.11693221 C124.563503 66.00498025 124.58104425 72.89282967 124.61002469 79.78081733 C124.63427242 85.75180833 124.64196971 91.72275001 124.64369965 97.69379234 C124.64672814 100.23152434 124.65476324 102.76925546 124.66788483 105.30695534 C124.68493117 108.8571186 124.68306821 112.40679794 124.67657471 115.95698547 C124.68578949 117.00603561 124.69500427 118.05508575 124.70449829 119.13592529 C124.67342733 124.5562624 124.43581236 128.4992616 121.32012939 133.14717102 C114.29784708 139.86413672 108.90415393 140.44450803 99.58233643 140.42182922 C98.50045044 140.42694016 97.41856445 140.43205109 96.30389404 140.43731689 C92.72852034 140.45121358 89.15333939 140.45025595 85.57794189 140.44795227 C83.09078907 140.45183931 80.6036369 140.45617399 78.1164856 140.4609375 C72.90293222 140.4684 67.68944655 140.46810829 62.47589111 140.46284485 C57.1255573 140.45747514 51.77541278 140.46451081 46.42510986 140.48335266 C39.96135361 140.50582363 33.4977554 140.51360336 27.03396225 140.50967979 C24.57242152 140.51019287 22.11087705 140.51542809 19.64935684 140.52549171 C16.20495898 140.53784475 12.76110082 140.53107053 9.31671143 140.51948547 C8.30245087 140.52712921 7.28819031 140.53477295 6.24319458 140.54264832 C-0.97964579 140.48902403 -5.88002856 139.57370079 -11.49237061 134.70967102 C-14.74506276 130.8993745 -15.92754898 128.28047271 -15.94729614 123.26475525 C-15.95582611 122.28347153 -15.96435608 121.30218781 -15.97314453 120.29116821 C-15.97178497 118.68582466 -15.97178497 118.68582466 -15.97039795 117.04804993 C-15.97711517 115.91593582 -15.9838324 114.78382172 -15.99075317 113.61740112 C-16.00977379 109.86946746 -16.01365942 106.12171247 -16.01580811 102.37373352 C-16.02223306 99.77065456 -16.02896119 97.16757633 -16.03598022 94.5644989 C-16.04876649 89.10539078 -16.05174558 83.64633116 -16.05047607 78.18721008 C-16.04927487 71.88416181 -16.07037377 65.58145608 -16.1019634 59.27849448 C-16.13130187 53.20762246 -16.13845126 47.1369144 -16.13725662 41.06597519 C-16.13961797 38.48637366 -16.14847134 35.90676963 -16.16392136 33.32721329 C-16.18350605 29.71954639 -16.17777194 26.11276214 -16.16571045 22.50508118 C-16.17694946 21.4389006 -16.18818848 20.37272003 -16.19976807 19.27423096 C-16.14841572 13.23287098 -15.70962819 9.74533785 -11.67987061 5.14717102 C-7.64283794 1.59073749 -5.34267717 0.0265321 0 0 Z " fill="#60767E" transform="translate(1871.6798706054688,1.8528289794921875)"/>
<path d="M0 0 C0.97130859 -0.00773437 1.94261719 -0.01546875 2.94335938 -0.0234375 C4.35391602 -0.01957031 4.35391602 -0.01957031 5.79296875 -0.015625 C6.63754639 -0.01336914 7.48212402 -0.01111328 8.35229492 -0.00878906 C10.8125 0.25 10.8125 0.25 15.8125 2.25 C15.8125 13.14 15.8125 24.03 15.8125 35.25 C11.8525 34.92 7.8925 34.59 3.8125 34.25 C-9.79523885 33.68301088 -20.83754325 35.57010151 -31.0859375 44.99609375 C-49.90747823 64.76282103 -48.49140412 95.8222421 -48.59221697 121.11343956 C-48.60804888 124.57408703 -48.63477283 128.03465176 -48.6602478 131.49523926 C-48.70668594 138.02183755 -48.74359697 144.54845203 -48.77692068 151.07512903 C-48.81539216 158.51676447 -48.86473502 165.95831609 -48.91490483 173.39988041 C-49.0177034 188.68319863 -49.10569565 203.9665528 -49.1875 219.25 C-61.3975 219.25 -73.6075 219.25 -86.1875 219.25 C-86.5175 148.3 -86.8475 77.35 -87.1875 4.25 C-75.6375 4.25 -64.0875 4.25 -52.1875 4.25 C-51.5275 17.45 -50.8675 30.65 -50.1875 44.25 C-48.2075 38.97 -46.2275 33.69 -44.1875 28.25 C-38.61722784 16.61432037 -31.77096238 6.69776285 -19.1875 2.25 C-12.6988935 0.2556664 -6.7656038 -0.05452468 0 0 Z " fill="#FFFFFF" transform="translate(866.1875,74.75)"/>
<path d="M0 0 C1.02738281 0.00064453 2.05476563 0.00128906 3.11328125 0.00195312 C7.42894308 0.02727317 11.03474396 0.13368599 15.25 1.1875 C15.25 12.4075 15.25 23.6275 15.25 35.1875 C11.29 34.8575 7.33 34.5275 3.25 34.1875 C-10.56852732 33.5206126 -21.14275499 35.89771536 -31.75 45.1875 C-44.610911 61.75409722 -47.856452 81.64126264 -47.95532227 102.02929688 C-47.96522186 103.29842926 -47.97512146 104.56756165 -47.98532104 105.87515259 C-48.01218942 109.33322661 -48.03329593 112.79131402 -48.05332303 116.24943352 C-48.07529501 119.87159497 -48.10262848 123.49371599 -48.12937927 127.11584473 C-48.17915539 133.96500418 -48.22414972 140.81418626 -48.26740164 147.66338968 C-48.31690348 155.46514632 -48.3717733 163.26686237 -48.42708123 171.06857967 C-48.54066956 187.1081836 -48.6468499 203.14782503 -48.75 219.1875 C-60.96 219.1875 -73.17 219.1875 -85.75 219.1875 C-86.08 148.2375 -86.41 77.2875 -86.75 4.1875 C-75.53 4.1875 -64.31 4.1875 -52.75 4.1875 C-51.02769376 5.90980624 -51.53900766 8.23417433 -51.46875 10.5859375 C-51.41267578 12.26623047 -51.41267578 12.26623047 -51.35546875 13.98046875 C-51.30326172 15.75357422 -51.30326172 15.75357422 -51.25 17.5625 C-50.99906286 25.80624981 -50.6064771 33.98236619 -49.75 42.1875 C-49.43361572 41.39484741 -49.43361572 41.39484741 -49.11083984 40.58618164 C-36.84153975 10.066048 -36.84153975 10.066048 -22 2.9765625 C-14.51288259 0.35087202 -7.88903619 -0.09547241 0 0 Z " fill="#FFFFFF" transform="translate(1317.75,74.8125)"/>
<path d="M0 0 C0.95177628 -0.0071553 1.90355255 -0.01431061 2.88417053 -0.02168274 C3.92680054 -0.02437164 4.96943054 -0.02706055 6.0436554 -0.02983093 C7.14315018 -0.03640213 8.24264496 -0.04297333 9.37545776 -0.04974365 C13.02177496 -0.06948796 16.66805093 -0.08114227 20.31440735 -0.09111023 C21.55938303 -0.09518576 22.80435871 -0.09926128 24.08706093 -0.10346031 C29.99773531 -0.12217461 35.90839659 -0.13673856 41.81909341 -0.14507228 C48.62964125 -0.15483449 55.43986321 -0.18112848 62.25029629 -0.22157317 C68.15826988 -0.25544741 74.06616423 -0.26722357 79.97423744 -0.27127647 C82.482417 -0.27614571 84.990593 -0.2877692 87.49870872 -0.30631447 C91.01265193 -0.33068033 94.52574719 -0.32974489 98.03974915 -0.32279968 C99.072258 -0.33560974 100.10476685 -0.3484198 101.16856384 -0.36161804 C107.34155807 -0.3172395 112.27968506 0.44454281 117.3651886 4.14717102 C120.90914084 8.59982896 122.48319251 12.13404765 122.51235962 17.78198242 C122.52309258 19.20964684 122.52309258 19.20964684 122.53404236 20.66615295 C122.53673126 21.70878296 122.53942017 22.75141296 122.54219055 23.82563782 C122.54876175 24.9251326 122.55533295 26.02462738 122.56210327 27.15744019 C122.58184758 30.80375738 122.59350189 34.45003336 122.60346985 38.09638977 C122.60754538 39.34136545 122.6116209 40.58634113 122.61581993 41.86904335 C122.63453423 47.77971773 122.64909817 53.69037901 122.6574319 59.60107583 C122.6671941 66.41162368 122.69348809 73.22184563 122.73393279 80.03227872 C122.76780703 85.9402523 122.77958319 91.84814666 122.78363609 97.75621986 C122.78850533 100.26439942 122.80012882 102.77257542 122.81867409 105.28069115 C122.84303995 108.79463435 122.84210451 112.30772962 122.8351593 115.82173157 C122.85437439 117.37049484 122.85437439 117.37049484 122.87397766 118.95054626 C122.81861618 126.6512516 121.22518771 131.65879331 116.34367371 137.61283875 C111.60701765 140.05287252 106.96168082 139.71989421 101.70942688 139.69648743 C100.53000519 139.70670929 99.3505835 139.71693115 98.13542175 139.72746277 C94.90788543 139.75047504 91.68098725 139.75540611 88.4533906 139.75033617 C85.75469492 139.74819281 83.0560934 139.75797363 80.35741794 139.76754701 C73.98770309 139.7897203 67.61822413 139.79062246 61.24848938 139.77851868 C54.68792742 139.76644346 48.12822379 139.79105179 41.56780827 139.83365881 C35.92597573 139.8689461 30.28441569 139.88088489 24.64247692 139.87438333 C21.27687221 139.8707653 17.91187958 139.87595007 14.54637527 139.90381241 C10.79015877 139.92850296 7.03592444 139.91498408 3.27973938 139.89179993 C2.17197144 139.9070874 1.06420349 139.92237488 -0.07713318 139.93812561 C-6.22243465 139.85433889 -9.85026521 139.16964008 -14.32711983 134.82411766 C-17.04149156 131.34328423 -17.8848665 128.67679011 -17.90223694 124.27148438 C-17.91076691 123.29164581 -17.91929688 122.31180725 -17.92808533 121.30227661 C-17.92717896 120.23361862 -17.92627258 119.16496063 -17.92533875 118.06391907 C-17.93205597 116.93341125 -17.93877319 115.80290344 -17.94569397 114.63813782 C-17.9647161 110.89501061 -17.96860042 107.15206233 -17.9707489 103.40888977 C-17.97717421 100.80820644 -17.98390237 98.20752384 -17.99092102 95.60684204 C-18.00290458 90.15192177 -18.00668637 84.69707256 -18.00541687 79.24214172 C-18.00421626 72.94706556 -18.02530295 66.6523327 -18.0569042 60.35734338 C-18.08626316 54.29181416 -18.09339146 48.22644898 -18.09219742 42.16085243 C-18.09455714 39.58486848 -18.10340146 37.00888198 -18.11886215 34.43294334 C-18.13847215 30.82787541 -18.1327025 27.2236889 -18.12065125 23.61860657 C-18.13189026 22.55602127 -18.14312927 21.49343597 -18.15470886 20.39865112 C-18.10121881 14.09703461 -17.40599554 10.26281775 -13.6348114 5.14717102 C-9.13435625 1.65702213 -5.66240558 0.02924184 0 0 Z M4.3651886 25.14717102 C2.00375931 29.2626212 2.06891238 33.42489201 2.07466125 38.05513 C2.06794403 38.8362616 2.06122681 39.61739319 2.05430603 40.42219543 C2.03535895 42.99595048 2.03140375 45.56944439 2.0292511 48.14326477 C2.02282171 49.93778591 2.01609324 51.732306 2.00907898 53.52682495 C1.99711506 57.28514537 1.99339733 61.04337392 1.99458313 64.80171204 C1.99478646 69.61144391 1.96746616 74.42058585 1.93303871 79.23017788 C1.91077597 82.93543186 1.90674537 86.64054361 1.90780258 90.34585762 C1.90544638 92.11884154 1.89662176 93.89182937 1.88113785 95.66474724 C1.86148675 98.14685536 1.86731136 100.62768775 1.87934875 103.1098175 C1.86810974 103.83780045 1.85687073 104.56578339 1.84529114 105.31582642 C1.90772327 110.39561354 3.03003172 113.3276222 6.3651886 117.14717102 C10.89400234 120.19018101 14.97628769 120.58039701 20.2948761 120.53535461 C21.06640015 120.54061157 21.83792419 120.54586853 22.63282776 120.55128479 C25.16882409 120.56442777 27.70418651 120.55576722 30.2401886 120.54560852 C32.01086039 120.5476309 33.78153137 120.55054371 35.55220032 120.55430603 C39.25752212 120.55872165 42.9626265 120.55232292 46.66792297 120.5382843 C51.40917774 120.52119283 56.14992297 120.53103811 60.89115906 120.54900169 C64.54581009 120.55986015 68.20034101 120.55638374 71.85499573 120.54861832 C73.60283977 120.54662201 75.35069484 120.54905553 77.098526 120.55605698 C79.54447676 120.56370552 81.9896109 120.55202025 84.4355011 120.53535461 C85.51109283 120.54446365 85.51109283 120.54446365 86.6084137 120.55375671 C92.16711455 120.48385479 96.07877274 119.22166504 100.21394348 115.46977234 C101.90971856 112.04859872 101.79931299 108.72205511 101.78511047 104.98554993 C101.79358002 104.16555008 101.80204956 103.34555023 101.81077576 102.5007019 C101.83416335 99.79155439 101.83516743 97.08297433 101.8339386 94.37373352 C101.84103972 92.48810092 101.84873865 90.60247048 101.85700989 88.71684265 C101.87045917 84.76419571 101.87202172 80.81174851 101.86616516 76.85908508 C101.86027224 71.79920197 101.89084151 66.74027942 101.93128204 61.68058205 C101.95716148 57.78571936 101.96003617 53.89108778 101.95639038 49.99615097 C101.95808177 48.13105737 101.96772614 46.26595311 101.98553467 44.40094376 C102.00772708 41.78917393 101.9980218 39.17934564 101.98042297 36.56758118 C101.99368622 35.80062424 102.00694946 35.0336673 102.02061462 34.24346924 C101.92977773 28.42741861 100.36345495 26.0676477 96.3651886 22.14717102 C93.22467606 20.57691475 89.86373188 20.98206234 86.41474915 20.97016907 C85.59343506 20.96359787 84.77212097 20.95702667 83.92591858 20.95025635 C81.20124729 20.93050603 78.47663116 20.91885702 75.75190735 20.90888977 C74.357368 20.90277648 74.357368 20.90277648 72.93465614 20.89653969 C68.01412299 20.87567171 63.09361778 20.86137306 58.17304993 20.852005 C53.08853348 20.84093802 48.00445437 20.80653691 42.92009258 20.76683331 C39.01244285 20.74069826 35.1048978 20.73231595 31.19716835 20.72872353 C29.32286945 20.72384963 27.44857547 20.71221285 25.5743618 20.69368553 C22.95049178 20.66935965 20.3277597 20.6702469 17.70381165 20.67720032 C16.93011734 20.66439026 16.15642303 20.6515802 15.35928345 20.63838196 C10.40107869 20.68625394 7.74632808 21.47788784 4.3651886 25.14717102 Z " fill="#60777E" transform="translate(1873.6348114013672,157.8528289794922)"/>
<path d="M0 0 C1.76913254 -0.01533279 1.76913254 -0.01533279 3.57400513 -0.03097534 C6.80154145 -0.05398761 10.02843963 -0.05891868 13.25603628 -0.05384874 C15.95473196 -0.05170538 18.65333348 -0.0614862 21.35200894 -0.07105958 C27.72172379 -0.09323287 34.09120275 -0.09413504 40.4609375 -0.08203125 C47.02149946 -0.06995603 53.58120309 -0.09456437 60.14161861 -0.13717139 C65.78345115 -0.17245867 71.42501119 -0.18439746 77.06694996 -0.1778959 C80.43255467 -0.17427787 83.7975473 -0.17946264 87.16305161 -0.20732498 C90.91926811 -0.23201553 94.67350244 -0.21849666 98.4296875 -0.1953125 C100.09133942 -0.21824371 100.09133942 -0.21824371 101.78656006 -0.24163818 C107.88518203 -0.15848791 111.5468804 0.51712084 116.03654671 4.77471352 C118.76160438 8.47275311 119.59330462 11.96668494 119.61839294 16.50056458 C119.62836807 17.47191849 119.6383432 18.4432724 119.64862061 19.44406128 C119.64928528 20.49820221 119.64994995 21.55234314 119.65063477 22.63842773 C119.65895828 23.75772171 119.6672818 24.87701569 119.67585754 26.03022766 C119.69995402 29.73063638 119.70872936 33.4308688 119.71533203 37.13134766 C119.72429857 39.70578565 119.73342043 42.28022311 119.74269104 44.85466003 C119.75918263 50.25232562 119.76691443 55.64992032 119.76977539 61.04760742 C119.77340838 67.27288742 119.80329122 73.49767374 119.84517998 79.72280294 C119.88414838 85.72587191 119.89536976 91.72866855 119.89650154 97.73187828 C119.90070418 100.27913782 119.91314007 102.82639777 119.93401909 105.37357521 C119.96092693 108.94015904 119.95610827 112.50538738 119.94360352 116.07202148 C119.96585495 117.64412384 119.96585495 117.64412384 119.98855591 119.24798584 C119.92303018 125.8237075 119.01656421 130.69410971 114.34423828 135.54931641 C108.54608672 140.14183999 102.21728197 140.12315073 95.09814453 140.06689453 C93.44780716 140.07740845 93.44780716 140.07740845 91.76412964 140.08813477 C88.14473879 140.10567048 84.52613643 140.09410693 80.90673828 140.08056641 C78.38142752 140.08326257 75.85611777 140.08714603 73.33081055 140.09216309 C68.04516629 140.09805216 62.75972522 140.08989833 57.47412109 140.07080078 C51.38002712 140.04903508 45.2864686 140.05608773 39.19238758 140.0781064 C33.30836222 140.0985079 27.4245389 140.09626937 21.54049683 140.08457947 C19.0462944 140.08191652 16.55207824 140.08516668 14.05789185 140.09449768 C10.56834025 140.10468836 7.07980798 140.08912517 3.59033203 140.06689453 C2.56567841 140.07499146 1.54102478 140.08308838 0.48532104 140.09143066 C-5.64901667 140.01925516 -10.72974759 139.45168685 -15.65576172 135.54931641 C-21.16492228 129.8165789 -21.37208739 123.7200223 -21.28686523 116.10375977 C-21.29402054 114.98242142 -21.30117584 113.86108307 -21.30854797 112.70576477 C-21.32539217 109.01647627 -21.30605679 105.32841008 -21.28466797 101.63916016 C-21.28549699 99.06661377 -21.28795763 96.49406743 -21.29197693 93.92152405 C-21.29483196 88.53743097 -21.28069416 83.15378665 -21.25268555 77.76977539 C-21.22062175 71.55863423 -21.22065892 65.348121 -21.23790032 59.13693517 C-21.25380114 53.14288405 -21.24691093 47.1491235 -21.2299633 41.15506172 C-21.22478636 38.61259029 -21.22525734 36.07010078 -21.23150826 33.52763176 C-21.23696755 29.97318693 -21.21656064 26.41980248 -21.18920898 22.86547852 C-21.19573486 21.81852814 -21.20226074 20.77157776 -21.20898438 19.69290161 C-21.10859865 12.0080112 -19.62262124 8.07630553 -14.63424683 2.14614868 C-9.91189149 -0.3856113 -5.27670357 -0.02351574 0 0 Z M1.53173828 24.48681641 C-0.94049871 28.7807017 -0.8090939 33.11344466 -0.81689453 37.96069336 C-0.82185944 38.70105835 -0.82682434 39.44142334 -0.8319397 40.20422363 C-0.8465205 42.64869117 -0.85335662 45.09309381 -0.85888672 47.53759766 C-0.86464168 49.24147035 -0.87039937 50.94534303 -0.87615967 52.6492157 C-0.88665815 56.22098084 -0.89250831 59.79272356 -0.89599609 63.36450195 C-0.90147735 67.93079387 -0.92550228 72.49678709 -0.95396805 77.06298542 C-0.97263507 80.58297072 -0.9778022 84.10288466 -0.97933197 87.62291527 C-0.98235003 89.30575378 -0.99034986 90.98859129 -1.00351715 92.671381 C-1.02066255 95.03106739 -1.01867701 97.39003164 -1.01220703 99.74975586 C-1.02142181 100.43831161 -1.0306366 101.12686737 -1.04013062 101.83628845 C-0.98854231 107.87342671 0.44752536 112.45108173 4.51928711 116.95545959 C8.21083099 119.03825395 11.41674447 119.10354689 15.54345703 119.05102539 C16.35545563 119.05642838 17.16745422 119.06183136 18.00405884 119.06739807 C20.68032611 119.0798755 23.35551551 119.06340136 26.03173828 119.04541016 C27.89591529 119.04556517 29.76009262 119.0470545 31.62426758 119.04981995 C35.52814001 119.0512035 39.43164484 119.03865325 43.33544922 119.01586914 C48.33579539 118.98748467 53.33553089 118.99022243 58.33592224 119.00295925 C62.18441978 119.00991912 66.03277654 119.00212362 69.8812561 118.98970222 C71.7248175 118.98519072 73.56839403 118.98484829 75.41195679 118.98876762 C77.98995872 118.99168286 80.56712348 118.97515828 83.14501953 118.95336914 C83.90464996 118.95787079 84.6642804 118.96237244 85.44692993 118.9670105 C89.91736811 118.90433247 92.89968091 118.47870289 96.34423828 115.54931641 C99.36085408 111.00830498 99.77742756 106.93388283 99.73242188 101.61962891 C99.73767883 100.84810486 99.74293579 100.07658081 99.74835205 99.28167725 C99.76149503 96.74568091 99.75283448 94.2103185 99.74267578 91.67431641 C99.74469816 89.90364461 99.74761097 88.13297364 99.75137329 86.36230469 C99.75578891 82.65698288 99.74939018 78.9518785 99.73535156 75.24658203 C99.71826009 70.50532727 99.72810537 65.76458203 99.74606895 61.02334595 C99.75692741 57.36869492 99.753451 53.71416399 99.74568558 50.05950928 C99.74368927 48.31166523 99.74612279 46.56381016 99.75312424 44.815979 C99.76077279 42.37002824 99.74908752 39.9248941 99.73242188 37.47900391 C99.73849457 36.76194275 99.74456726 36.04488159 99.75082397 35.30609131 C99.6924396 30.66328266 98.7629626 27.50463826 96.34423828 23.54931641 C91.86322838 19.48840118 87.5528111 19.39708793 81.75512695 19.38818359 C80.98404099 19.38321869 80.21295502 19.37825378 79.41850281 19.37313843 C76.86639514 19.35852833 74.31434965 19.35171647 71.76220703 19.34619141 C69.98724872 19.34043868 68.21229043 19.33468096 66.43733215 19.32891846 C62.71415925 19.31841153 58.99100791 19.31256695 55.26782227 19.30908203 C50.502991 19.3036002 45.73844591 19.27957756 40.97370434 19.25111008 C37.30621006 19.23246192 33.6387844 19.22727692 29.97124672 19.22574615 C28.21501413 19.22272364 26.45878264 19.21470866 24.70259666 19.20156097 C22.24202248 19.18445596 19.78214315 19.18639148 17.3215332 19.19287109 C16.59975891 19.18365631 15.87798462 19.17444153 15.13433838 19.16494751 C9.61678162 19.21033316 5.36257026 20.39178912 1.53173828 24.48681641 Z " fill="#60767E" transform="translate(1720.65576171875,-0.54931640625)"/>
<path d="M0 0 C12.21 0 24.42 0 37 0 C37 70.95 37 141.9 37 215 C24.79 215 12.58 215 0 215 C0 144.05 0 73.1 0 0 Z " fill="#FFFFFF" transform="translate(1366,79)"/>
<path d="M0 0 C12.21 0 24.42 0 37 0 C37 11.22 37 22.44 37 34 C24.79 34 12.58 34 0 34 C0 22.78 0 11.56 0 0 Z " fill="#FFFFFF" transform="translate(1366,0)"/>
</svg>
